<svg xmlns="http://www.w3.org/2000/svg" viewBox="0 0 480 100" width="100%" height="100%">
  <!-- Icon scaled and translated -->
  <g transform="translate(10, 10) scale(0.156)">
    <!-- Slightly dark circular background -->
    <circle cx="256" cy="256" r="290" fill="#cbd5e1" />
    
    <path fill="#7daeff" d="M110 130v332h312V130z" />
    <path fill="#3b66b4" d="M382 130v332h40V130z" />
    <path fill="#e6e6e6" d="M256 32L24 160h60v20H44L256 64l212 116h-40v-20h60L256 32z" />
    <path fill="#f2f2f2" d="M44 180a20 20 0 01-10-37l222-122a20 20 0 0119 0l222 122a20 20 0 01-19 35L256 68 64 174a20 20 0 01-20 6z" />
    <rect fill="#3b66b4" x="200" y="160" width="40" height="15" rx="7.5" />
    <rect fill="#3b66b4" x="272" y="160" width="40" height="15" rx="7.5" />
    <rect fill="#4d5363" x="180" y="220" width="152" height="242" rx="15" />
    <path fill="#e6e6e6" d="M180 220h152v60H180z" />
    <path fill="#cccccc" d="M180 220h152v20H180z" />
    <rect fill="#e09c48" x="60" y="300" width="120" height="162" rx="10" />
    <rect fill="#b9722a" x="160" y="300" width="20" height="162" rx="5" />
    <path fill="#fce595" d="M100 300h40v50l-20 15-20-15z" />
    <rect fill="#b9722a" x="80" y="390" width="60" height="15" rx="7.5" />
    <rect fill="#b9722a" x="80" y="420" width="60" height="15" rx="7.5" />
    <rect fill="#e09c48" x="180" y="350" width="90" height="112" rx="10" />
    <rect fill="#b9722a" x="250" y="350" width="20" height="112" rx="5" />
    <path fill="#fce595" d="M210 350h30v35l-15 10-15-10z" />
    <rect fill="#b9722a" x="195" y="410" width="45" height="12" rx="6" />
    <rect fill="#b9722a" x="195" y="435" width="45" height="12" rx="6" />
  </g>
  <!-- Text -->
  <text transform="matrix(1 0 0 1.15 0 0)" x="100" y="60" font-family="'Outfit', 'Inter', 'Segoe UI', sans-serif" font-weight="900" font-size="42" letter-spacing="-0.5" fill="#111827">Warehouse<tspan fill="#3b66b4">MTMS</tspan></text>
</svg>
